inDegrees=no
num_controls=7
num_derivatives=13
num_iterations=154
num_multipliers=7
num_parameters=0
num_slacks=7
num_states=26
objective=0.516753
objective_accelerations=0.038974
objective_balance=0.002154
objective_effort=0.043128
objective_height=0.420848
objective_ligament=0.011650
solver_duration=2041.999875
status=Solve_Succeeded
success=true
DataType=double
version=3
OpenSimVersion=4.5
endheader
time	/jointset/ground_pelvis/pelvis_tilt/value	/jointset/ground_pelvis/pelvis_tx/value	/jointset/ground_pelvis/pelvis_ty/value	/jointset/hip_l/hip_flexion_l/value	/jointset/hip_l/hip_adduction_l/value	/jointset/hip_l/hip_rotation_l/value	/jointset/back/lumbar_extension/value	/jointset/patellofemoral_l/patellar_flexion_l/value	/jointset/knee_l/knee_flexion_l/value	/jointset/knee_l/knee_adduction_l/value	/jointset/knee_l/knee_rotation_l/value	/jointset/ankle_l/ankle_angle_l/value	/jointset/subtalar_l/subtalar_angle_l/value	/jointset/ground_pelvis/pelvis_tilt/speed	/jointset/ground_pelvis/pelvis_tx/speed	/jointset/ground_pelvis/pelvis_ty/speed	/jointset/hip_l/hip_flexion_l/speed	/jointset/hip_l/hip_adduction_l/speed	/jointset/hip_l/hip_rotation_l/speed	/jointset/back/lumbar_extension/speed	/jointset/patellofemoral_l/patellar_flexion_l/speed	/jointset/knee_l/knee_flexion_l/speed	/jointset/knee_l/knee_adduction_l/speed	/jointset/knee_l/knee_rotation_l/speed	/jointset/ankle_l/ankle_angle_l/speed	/jointset/subtalar_l/subtalar_angle_l/speed	/forceset/tau_hip_flexion_l	/forceset/tau_hip_adduction_l	/forceset/tau_hip_rotation_l	/forceset/tau_knee_flexion_l	/forceset/tau_ankle_angle_l	/forceset/tau_subtalar_angle_l	/forceset/tau_lumbar_extension	lambda_cid13_p0	lambda_cid13_p1	lambda_cid13_p2	lambda_cid13_p3	lambda_cid13_p4	lambda_cid13_p5	lambda_cid14_p0	/jointset/ground_pelvis/pelvis_tilt/accel	/jointset/ground_pelvis/pelvis_tx/accel	/jointset/ground_pelvis/pelvis_ty/accel	/jointset/hip_l/hip_flexion_l/accel	/jointset/hip_l/hip_adduction_l/accel	/jointset/hip_l/hip_rotation_l/accel	/jointset/back/lumbar_extension/accel	/jointset/patellofemoral_l/patellar_flexion_l/accel	/jointset/knee_l/knee_flexion_l/accel	/jointset/knee_l/knee_adduction_l/accel	/jointset/knee_l/knee_rotation_l/accel	/jointset/ankle_l/ankle_angle_l/accel	/jointset/subtalar_l/subtalar_angle_l/accel	gamma_cid13_p0	gamma_cid13_p1	gamma_cid13_p2	gamma_cid13_p3	gamma_cid13_p4	gamma_cid13_p5	gamma_cid14_p0
0	-0.03682310612671511	0.05667758441190437	0.9203415787173701	0.3085816938045678	-0.2956401299275191	-0.3016023057979213	-0.3879492264334186	0.2499269421184915	0.2499269421184919	-0.1745329251994329	-0.1745278164245754	-0.0008036623358878681	0.000437895824970868	0	0	0	0	0	0	0	0	0	0	0	0	0	0.06070633282481369	-0.03885129310155052	-0.01762760833903024	-0.2241369451930462	0.1558230826779421	-0.008701625242224093	0.01123522796905915	6.14603507248092	-0.1318656435419248	2.804802141049718	20.87199013006888	-630.1048470029845	-75.16376568461585	-23.19680375442669	-1.252938967146193	-2.143240881179064	-0.8282684993760011	8.58617015139442	-0.5505979268794428	2.608077192068452	-6.887393778245565	7.423461158160293	7.423461158160374	1.234919674949152	-0.0561227304270497	0.5356302977566283	-0.4175807198544847	1.120545139169787e-08	1.099551841636507e-07	2.281651674315319e-08	-1.339608819050615e-08	1.094453300324671e-07	2.868568474075678e-08	5.918936284035088e-09
0.01	-0.03688220178654968	0.05657221338526115	0.920301097394265	0.3090001671341338	-0.2956678943155222	-0.3014714862374103	-0.388291959619259	0.2502905249148624	0.2502905249148618	-0.1744743641031469	-0.1745279698329454	-0.0007777249107058702	0.0004164769659792785	-0.01176152906282712	-0.02091333366569409	-0.00805967797232608	0.08322187766848495	-0.005526842031337989	0.02603962173235497	-0.06806960021495233	0.07237513691649099	0.07237513691649305	0.01164850367708282	-2.632149505952641e-05	0.005243104049019402	-0.004236168824280371	0.05652654508807435	-0.04460009131634612	-0.01728912035734897	-0.2225422314684113	0.1541415600628803	-0.00140978766549195	0.01574974552768311	5.789841957061606	-3.173346218367996	3.217739067348155	19.20059319399022	-632.7085404834631	-81.1540589818304	-23.2009519804786	-1.129124755926124	-2.041251539022961	-0.789307559790914	8.119275135197686	-0.5498421425193181	2.583262767817397	-6.695187600156662	7.093325420987028	7.093325420987213	1.120120889411781	0.02476771952108413	0.5269971766920232	-0.4195148592089833	-9.792308002151224e-09	9.928678778538469e-08	7.196558620750055e-08	8.327182775628469e-09	1.226250308668147e-08	-4.613339916296097e-09	-8.251173351749127e-11
0.02	-0.03705718571302737	0.05626253463600933	0.9201811212687107	0.3102366749525075	-0.2957501500840904	-0.3010839988387757	-0.3893010776986566	0.2513676161729143	0.2513676161729153	-0.1743012516801762	-0.1745282555405551	-0.0006976871013901972	0.0003541204396460512	-0.02317765332866111	-0.04086154452171838	-0.01589896048985331	0.163606897761857	-0.01089827611301002	0.05133356762464489	-0.1332769787113694	0.142701692336723	0.1427016923367236	0.02290921436712315	-2.645984745903947e-05	0.01082007682673572	-0.008187533468327518	0.05234675735132299	-0.0503488895311401	-0.01695063237565135	-0.2209475177437847	0.152460037447817	0.005882049911241164	0.02026426308629798	5.49113064685263	-6.222767747945372	3.62951583350057	17.48317578981179	-634.4237390807699	-87.07078392222819	-23.21316196309358	-1.183858007747578	-1.950216319245101	-0.7841894084162319	8.018798636371832	-0.5195163369462512	2.458942024055442	-6.314949434538522	7.013744858908489	7.013744858907862	1.157361077540654	-0.05088610189504261	0.6024040434960171	-0.3606198838078383	-3.079006739600032e-08	8.861839140711864e-08	1.211146556718479e-07	3.005045374176309e-08	-8.492032385910419e-08	-3.791236457334897e-08	-6.08395975107007e-09
0.03	-0.03734462632885509	0.05575766175180685	0.9199836150516473	0.3122637666169107	-0.295885304921526	-0.3004477385921173	-0.3909482100661366	0.2531380149164869	0.2531380149164887	-0.1740174568358565	-0.1745288755338856	-0.0005608952078932631	0.000253479365127539	-0.03423490748475659	-0.06000569833687904	-0.02358610596609662	0.2414035551623645	-0.0161072179528963	0.07580251644749916	-0.1957199611539248	0.211054945135509	0.2110549451355048	0.03377108669732314	-8.892548944788723e-05	0.01652593525079133	-0.01191758317512345	0.04566846905704722	-0.04525383488080737	-0.01610363529175436	-0.2149456573515698	0.1467876042484485	0.005221923192899277	0.02605315477325878	3.605207181960329	-5.673045008826579	3.61861287034557	17.79506255349338	-635.7322088930127	-85.06603644509694	-23.23296694953784	-1.055327406140343	-1.880408717488846	-0.7585679504455676	7.598912579705055	-0.5177886885365426	2.423461207694913	-6.144542604525663	6.69765004505483	6.697650045054542	1.038825626924369	0.01738399427951424	0.5528230548857606	-0.3757607066446684	-4.352121248505159e-08	8.685679574639092e-08	1.602650596047976e-07	4.271078246169623e-08	-1.42369673895606e-07	-5.803571049227866e-08	-1.037939286444907e-08
0.04	-0.03774037314356344	0.05506456856848531	0.9197097192131782	0.315056587512883	-0.2960717902935657	-0.2995702708779716	-0.3932068862491241	0.2555822530989856	0.2555822530989887	-0.1736273982050019	-0.1745298580257094	-0.0003674154675506772	0.0001162251550352288	-0.0448388931048459	-0.07850560434552778	-0.03117688477102543	0.3167527440754661	-0.02116438303385142	0.09957506112213328	-0.2555857418129459	0.2774695801219419	0.2774695801219376	0.04416197167411091	-9.89595462237868e-05	0.02215764619586397	-0.01551016058308734	0.03899018076277775	-0.04015878023047538	-0.01525663820785671	-0.2089437969593518	0.1411151710490805	0.00456179647455679	0.03184204646022431	1.772358546973068	-5.129956156797768	3.6057300201686	18.05815432327859	-636.2274741454238	-82.99187256101919	-23.25980873084411	-1.093204300546353	-1.821366757942712	-0.7649160741533348	7.529304938890624	-0.48916098516002	2.319661194411414	-5.799509077831687	6.626021296437897	6.626021296438174	1.06316360685821	-0.04039978485244694	0.587574547699429	-0.3331254240414257	-5.608191191833385e-08	8.527884546128255e-08	1.992093054855536e-07	5.51842463930479e-08	-1.989997769855247e-07	-7.788739293207179e-08	-1.463965041279356e-08
0.05	-0.03824030187931319	0.0541901056601896	0.919360281526254	0.3185907420078507	-0.2963079579823256	-0.298458822124319	-0.3960508825783059	0.2586810842385137	0.2586810842385154	-0.1731356032915314	-0.1745308631593191	-0.0001174638442323728	-5.595013709192917e-05	-0.05508549500996295	-0.09623799103537529	-0.03870146309822805	0.3896347136635709	-0.02603643521973649	0.122586724648605	-0.3127680835209851	0.3419683199319852	0.3419683199319741	0.05411884107169151	-9.531087707640579e-05	0.02786790089385209	-0.01887797489436303	0.03351277057105239	-0.03929966638677759	-0.01475483786430053	-0.2064873518751518	0.1398461937308391	0.006176903247089052	0.03703908608952133	1.436614633457037	-5.767018006379476	3.700906971032486	16.8704444719841	-637.0404286676491	-83.52605143777653	-23.29296724152573	-0.9811859646065419	-1.726815545110161	-0.7448905422402794	7.101120578213865	-0.4813529695965234	2.272695943328462	-5.610780641937659	6.31255410786799	6.312554107866718	0.950254536079198	0.02179367739589273	0.5680349057330703	-0.3316073240798841	-6.748921148853294e-08	5.419328511015347e-08	2.279444106125447e-07	6.451123863061691e-08	-2.53460806239819e-07	-1.004309819829755e-07	-2.080927891555752e-08
0.06	-0.0388408561999363	0.05314279070087455	0.9189358656900106	0.3228404117205888	-0.2965918713198032	-0.2971211013330892	-0.3994533391094975	0.2624150535330593	0.2624150535330589	-0.1725465784981114	-0.1745316225093158	0.0001906471210427392	-0.0002604031502136906	-0.0649640100795688	-0.113076014549396	-0.04617251463489321	0.459855787629413	-0.03071351277737298	0.1448294686376135	-0.3672777822149299	0.4044972111252465	0.4044972111252239	0.06360794766412094	-4.980282402656877e-05	0.03378951458722296	-0.02196570478200827	0.02803536037933191	-0.03844055254307798	-0.01425303752075275	-0.2040309067909467	0.1385772164125998	0.007792010019623998	0.04223612571882006	1.148334732614972	-6.410426730313753	3.794852595823307	15.633254329172	-637.1265382051456	-83.99694633408996	-23.331641904251	-1.019586933444122	-1.64249412277735	-0.7542107160458439	6.997125814438085	-0.4501660595103049	2.165877286918773	-5.264980475012794	6.232051573081498	6.232051573080858	0.9696110458279713	-0.03202790807194829	0.6298463467759859	-0.2771085393153301	-7.884794685397062e-08	2.186529907203408e-08	2.562496571814825e-07	7.370574784950031e-08	-3.078305060694553e-07	-1.230879144701366e-07	-2.705930198482336e-08
0.07000000000000001	-0.03953860469716611	0.05193140835457727	0.918436863020262	0.3277797047512905	-0.2969214991786513	-0.2955652144392609	-0.4033875013606487	0.2667648038179408	0.2667648038179397	-0.1718647988475185	-0.1745321747931166	0.0005588965695927555	-0.0004942925987341105	-0.07452325594859857	-0.1290660894803299	-0.0536286622361554	0.5275850946288709	-0.03517450476801917	0.1662180041093359	-0.4191338656059896	0.4651300007531529	0.4651300007531059	0.07267160752653555	-5.415712828397962e-05	0.03987509397696545	-0.02476757705162968	0.02183029011538643	-0.03634781969491572	-0.01362134919841715	-0.2008191318568207	0.1361416845006694	0.00879048481984211	0.04781624581843459	0.445991732734643	-6.72948281665506	3.855306394426705	14.90863253778023	-637.3153352240977	-83.70934584000796	-23.37492748177819	-0.9147278853043415	-1.557094541181114	-0.7414754454906727	6.598168324689442	-0.4384615769155519	2.105815064734221	-5.082801909767214	5.93047138056022	5.930471380556866	0.8633122859956824	0.01638082917715564	0.6001198049900367	-0.2750678009190275	-8.621099811913846e-08	-5.68844796670988e-09	2.748355222508111e-07	7.943587346282516e-08	-3.43477729428059e-07	-1.381981517310335e-07	-3.173368024080518e-08
